
        <svg xmlns="http://www.w3.org/2000/svg" xmlns:xlink="http://www.w3.org/1999/xlink" version="1.1" width="3187.5" height="840.3954326742254" viewBox="0 0 3187.5 840.3954326742254">
			
			<g transform="scale(9.375) translate(10, 10)">
				<defs id="SvgjsDefs1201"/><g id="SvgjsG1202" featureKey="symbolFeature-0" transform="matrix(0.11379152758736125,0,0,0.11379152758736125,0,-3.2116518766850994)" fill="#fff"><g xmlns="http://www.w3.org/2000/svg">    <path d="M587.1,45.8c-52.2,0-103.5,13.8-148.2,40.5c-43.8-25.9-95.1-40.5-147.2-40.5C130.8,45.8,0,176.5,0,337.4         c0,160.9,130.8,291.7,291.7,291.7c52,0,103.1-13.7,147.7-40.2c44.6,26.5,95.7,40.2,147.7,40.2c160.9,0,291.7-130.8,291.7-291.7         C878.8,176.5,748,45.8,587.1,45.8z M439.4,559.9c-46.1-30.9-80.6-74-100.4-123.3l113.7,113.7C448.4,553.6,443.9,556.8,439.4,559.9z          M473.4,532.7L323.8,383.2c-2.6-15-3.9-30.3-3.9-45.8c0-3.6,0.1-7.2,0.2-10.8l178.4,179.1C490.8,515.3,482.4,524.3,473.4,532.7z          M514.7,483.7L323.8,292.1c2.5-14.5,6.1-28.6,10.9-42.3l199.2,199.2C528.3,461,521.9,472.6,514.7,483.7z M544.6,421.5L345.8,222.6         c5.5-11.5,11.8-22.6,18.9-33.3l190.1,190.1C552.5,393.8,549.1,407.9,544.6,421.5z M380.9,167.4c7.9-9.6,16.5-18.7,25.8-27.3         l146.6,146.6c3.1,16.5,4.7,33.4,4.7,50.7c0,2.3,0,4.6-0.1,7L380.9,167.4z M427.6,122.8c3.7-2.8,7.6-5.5,11.5-8.2         c44.6,29.3,78.1,70.3,98,117.6L427.6,122.8z M24.5,337.4C24.5,189.7,144,70.2,291.7,70.2c44.2,0,86.6,10.3,125.1,31         c-76.2,54.6-120.4,142.1-120.4,236.2S341.6,519,416.8,573.6c-38.6,20.7-81.9,31-125.1,31C144,604.7,24.5,485.2,24.5,337.4z          M587.1,604.7c-44.2,0-86.6-10.3-125.1-31c76.2-54.6,120.4-142.1,120.4-236.2S538.2,155.8,462,101.3c38.6-20.7,80.9-31,125.1-31         c147.7,0,267.2,119.5,267.2,267.2C854.4,485.2,734.9,604.7,587.1,604.7z"/></g></g><g id="SvgjsG1203" featureKey="nameFeature-0" transform="matrix(1.923816869577789,0,0,1.923816869577789,120,-22.00845867662001)" fill="#fff"><path d="M4.8 17.36 c2.64 0 4.8 2.16 4.8 4.8 l0 18 l-3.84 0 l0 -18 c0 -0.52 -0.44 -0.96 -0.96 -0.96 s-0.96 0.44 -0.96 0.96 l0 18 l-3.84 0 l0 -23.52 l3.84 0 l0 0.84 c0.32 -0.08 0.64 -0.12 0.96 -0.12 z M16.8 39.92 c-2.88 0 -5.2 -2.36 -5.2 -5.24 l0 -12.48 c0 -2.64 2.16 -4.8 4.8 -4.8 l0.84 0 c2.64 0 4.8 2.16 4.8 4.8 l0 5.24 l-6.72 0.12 l0 7.12 c0 0.84 0.64 1.52 1.48 1.52 s1.52 -0.68 1.52 -1.52 l0 -2.48 l3.72 0 l0 2.48 c0 2.88 -2.36 5.24 -5.24 5.24 z M17.24 21.08 l-0.84 0 c-0.6 0 -1.08 0.52 -1.08 1.12 l0 1.68 l3 -0.08 l0 -1.6 c0 -0.6 -0.48 -1.12 -1.08 -1.12 z M27.84 39.88 c0.04 -6.28 0.04 -16.32 0 -22.52 l-3.8 0.04 c0.04 6.16 0.04 16.16 0 22.44 z M24.04 12.600000000000001 l3.8 0 l0 3.72 l-3.8 0 l0 -3.72 z M40.56 42.88 c0 2.64 -2.12 4.76 -4.72 4.76 l-1.2 0 c-2.64 0 -4.76 -2.12 -4.76 -4.76 l3.8 0 c0 0.52 0.4 0.96 0.96 0.96 l1.2 0 c0.52 0 0.92 -0.44 0.92 -0.96 l0 -3.04 c-0.36 0.08 -0.72 0.16 -1.12 0.16 l-0.84 0 c-2.72 0 -4.92 -2.24 -4.92 -4.96 l0.08 -12.84 c0 -2.72 2.2 -4.92 4.92 -4.92 l0.08 0 l0.72 0.04 c2.68 0 4.88 2.2 4.88 4.92 l0 20.64 z M35.64 36.2 c0.64 0 1.12 -0.52 1.12 -1.16 l0 -12.8 c0 -0.64 -0.52 -1.12 -1.12 -1.12 l-0.08 0 l-0.72 -0.04 c-0.6 0 -1.08 0.52 -1.08 1.12 l-0.08 12.88 c0 0.6 0.52 1.12 1.12 1.12 l0.84 0 z M47.84 17.36 c2.84 0 5.16 2.28 5.16 5.12 l0 17.48 l-3.8 0 l0 -17.48 c0 -0.72 -0.6 -1.36 -1.36 -1.36 l-1.48 0 l0 18.84 l-3.8 0 l0 -28.52 l3.8 0 l0 5.92 l1.48 0 z M60.96 17.32 c2.64 0 4.76 2.16 4.76 4.8 l0 13.08 c0 2.64 -2.12 4.8 -4.76 4.8 l-5.96 0 l0 -28.56 l3.8 0 l0 5.88 l2.16 0 z M61.92 35.2 l0 -13.08 c0 -0.56 -0.44 -1 -0.96 -1 l-2.16 0 l0 15.04 l2.16 0 c0.52 0 0.96 -0.44 0.96 -0.96 z M73.12 40.04 c-3 0 -5.4 -2.44 -5.4 -5.4 l0 -11.88 c0 -2.96 2.4 -5.4 5.4 -5.4 c2.96 0 5.36 2.44 5.36 5.4 l0 11.88 c0 2.96 -2.4 5.4 -5.36 5.4 z M73.12 21.2 c-0.88 0 -1.56 0.72 -1.56 1.56 l0 11.88 c0 0.88 0.68 1.56 1.56 1.56 c0.84 0 1.56 -0.68 1.56 -1.56 l0 -11.88 c0 -0.84 -0.72 -1.56 -1.56 -1.56 z M85.88000000000001 40.04 c-3 0 -5.4 -2.44 -5.4 -5.4 l0 -11.88 c0 -2.96 2.4 -5.4 5.4 -5.4 c2.96 0 5.36 2.44 5.36 5.4 l0 11.88 c0 2.96 -2.4 5.4 -5.36 5.4 z M85.88000000000001 21.2 c-0.88 0 -1.56 0.72 -1.56 1.56 l0 11.88 c0 0.88 0.68 1.56 1.56 1.56 c0.84 0 1.56 -0.68 1.56 -1.56 l0 -11.88 c0 -0.84 -0.72 -1.56 -1.56 -1.56 z M99.04 18.28 c2.72 0 4.92 2.16 4.92 4.88 l0 1.92 l-3.8 0 l0 -1.92 c0 -0.64 -0.48 -1.12 -1.12 -1.12 l-0.84 0 c-0.6 0 -1.12 0.48 -1.12 1.12 l-0.08 16.88 l-3.76 0 l0.08 -16.88 l0 -5.76 l3.76 0 l0 1 c0.36 -0.08 0.76 -0.12 1.12 -0.12 l0.84 0 z"/></g>
			</g>
		</svg>
	